<?xml version="1.0" encoding="UTF-8" standalone="no" ?>
<!DOCTYPE svg PUBLIC "-//W3C//DTD SVG 1.1//EN" "http://www.w3.org/Graphics/SVG/1.1/DTD/svg11.dtd">
<svg xmlns="http://www.w3.org/2000/svg" xmlns:xlink="http://www.w3.org/1999/xlink" version="1.1" width="157.5504" height="154.0157" xml:space="preserve">
<desc>Created with Fabric.js 1.6.0-rc.1</desc>
<defs></defs>
<g style="stroke: none; stroke-width: 1; stroke-dasharray: none; stroke-linecap: butt; stroke-linejoin: miter; stroke-miterlimit: 10; fill: none; fill-rule: nonzero; opacity: 1;" transform="translate(10 10) scale(0.13 0.13)" >
  <path d="M 528.54 133.602 c 218.113 0 394.94 176.823 394.94 394.941 c 0 218.118 -176.827 394.941 -394.94 394.941 c -218.123 0 -394.941 -176.823 -394.941 -394.941 c 0 -218.118 176.818 -394.941 394.941 -394.941 z" style="stroke: none; stroke-width: 1; stroke-dasharray: none; stroke-linecap: butt; stroke-linejoin: miter; stroke-miterlimit: 10; fill: #aee6ff; fill-rule: nonzero; opacity: 1;" transform="" stroke-linecap="round" />
  <path d="M 528.54 331.856 c 108.624 0 196.687 88.063 196.687 196.687 c 0 108.625 -88.063 196.688 -196.687 196.688 c -108.625 0 -196.688 -88.063 -196.688 -196.688 c 0 -108.625 88.063 -196.687 196.688 -196.687 z" style="stroke: none; stroke-width: 1; stroke-dasharray: none; stroke-linecap: butt; stroke-linejoin: miter; stroke-miterlimit: 10; fill: #fff64f; fill-rule: nonzero; opacity: 0;" transform="" stroke-linecap="round" />
  <path d="M 398.591 281.599 s -94.366 -8.932 -87.968 178.454 c 0 0 2.458 139.922 81.006 144.829 c 0 0 83.729 11.896 91.094 -145.196 c -0.009 0 11.509 -178.156 -84.132 -178.087 z m 277.384 307.812 s -80.963 8.992 -80.963 -124.108 V 318.017 s 1.619 -21.821 16.888 -20.729 c 0 0 16.769 -2.18 16.769 20.729 l 1.293 142.926 s -2.595 9.814 11.587 10.906 c 0 0 14.858 2.18 14.858 -9.818 v -145.65 s 1.199 -19.205 19.337 -19.153 c 0 0 15.201 0.064 14.104 18.609 l 0.771 144.014 s 1.927 8.727 14.293 7.635 c 0 0 4.11 4.363 17.265 -6.543 V 318.017 s -0.068 -21.928 16.289 -20.789 c 0 0 10.02 -1.028 10.02 19.697 v 151.653 s 18.464 116.187 -72.511 120.833 z" style="stroke: none; stroke-width: 1; stroke-dasharray: none; stroke-linecap: butt; stroke-linejoin: miter; stroke-miterlimit: 10; fill: #48bff7; fill-rule: nonzero; opacity: 1;" transform="" stroke-linecap="round" />
  <path d="M 1015.542 322.804 c -26.626 -62.94 -64.735 -119.462 -113.267 -167.994 c -48.54 -48.532 -105.062 -86.649 -167.998 -113.271 C 669.106 13.985 599.884 0 528.547 0 C 457.193 0 387.98 13.977 322.808 41.539 C 259.864 68.16 203.342 106.278 154.81 154.81 S 68.169 259.863 41.552 322.804 C 13.985 387.975 0 457.193 0 528.543 c 0 71.342 13.985 140.563 41.552 205.73 c 26.617 62.94 64.726 119.462 113.258 168.002 c 23.662 23.653 49.216 44.815 76.484 63.395 a 696.089 696.089 0 0 0 24.947 17.813 c 45.654 31.062 81.177 46.408 107.631 46.408 c 8.179 0 15.5 -1.469 21.983 -4.39 c 19.757 -8.914 29.648 -29.527 29.375 -61.283 l 1.199 -393.527 l -30.128 -0.095 l -1.747 393.622 v 0.185 c 0 13.064 -1.293 29.614 -11.416 34.179 c -7.716 3.489 -32.723 6.615 -100.386 -39.355 c -6.826 -4.642 -13.309 -9.373 -19.646 -14.036 c 0 0 -6.072 -4.771 -9.292 -7.014 c -25.854 -19.654 -45.517 -35.836 -45.517 -35.836 C 94.828 810.849 29.511 677.175 29.511 528.535 c 0 -275.158 223.869 -499.013 499.027 -499.013 c 275.148 0 499.018 223.855 499.018 499.013 c 0 149.924 -66.481 284.6 -171.483 376.152 c -13.137 10.876 -32.44 26.192 -53.652 40.79 c -9.771 6.427 -29.435 18.853 -29.435 18.853 c -47.94 28.137 -69.539 25.427 -76.142 22.442 c -10.14 -4.564 -14.122 -21.105 -14.122 -34.188 v -0.09 l 0.96 -393.716 l -28.467 0.085 l 1.722 393.537 c -0.283 31.746 9.865 52.368 29.622 61.287 c 6.482 2.925 13.934 4.389 22.112 4.389 c 24.964 0 58.089 -13.685 100.103 -41.338 a 527.1 527.1 0 0 0 73.024 -55.083 c 6.868 -5.818 11.193 -10.362 11.193 -10.362 a 559.383 559.383 0 0 0 9.283 -9.026 c 48.531 -48.54 86.649 -105.062 113.274 -168.002 c 27.559 -65.167 41.535 -134.385 41.535 -205.73 c -0.01 -71.342 -13.982 -140.559 -41.541 -205.731 z" style="stroke: none; stroke-width: 1; stroke-dasharray: none; stroke-linecap: butt; stroke-linejoin: miter; stroke-miterlimit: 10; fill: #48bff7; fill-rule: nonzero; opacity: 1;" transform="" stroke-linecap="round" />
</g>
  <g transform="translate(50.19 70.85) scale(0.6 0.6)">
   <text font-family="Comic Neue" font-size="40" font-weight="normal" style="stroke: none; stroke-width: 1; stroke-dasharray: none; stroke-linecap: butt; stroke-linejoin: miter; stroke-miterlimit: 10; fill: #000000; fill-rule: nonzero; opacity: 1;" ><tspan x="-66.48" y="8.98" style="stroke: none; stroke-width: 0; stroke-dasharray: none; stroke-linecap: butt; stroke-linejoin: miter; stroke-miterlimit: 4; fill: #000000; fill-rule: ; opacity: 1;">H</tspan><tspan x="-39.1" y="8.98" style="stroke: none; stroke-width: 0; stroke-dasharray: none; stroke-linecap: butt; stroke-linejoin: miter; stroke-miterlimit: 4; fill: #000000; fill-rule: ; opacity: 1;">A</tspan><tspan x="-14.16" y="8.98" style="stroke: none; stroke-width: 0; stroke-dasharray: none; stroke-linecap: butt; stroke-linejoin: miter; stroke-miterlimit: 4; fill: #000000; fill-rule: ; opacity: 1;">P</tspan><tspan x="7.71" y="8.98" style="stroke: none; stroke-width: 0; stroke-dasharray: none; stroke-linecap: butt; stroke-linejoin: miter; stroke-miterlimit: 4; fill: #000000; fill-rule: ; opacity: 1;">P</tspan><tspan x="29.59" y="8.98" style="stroke: none; stroke-width: 0; stroke-dasharray: none; stroke-linecap: butt; stroke-linejoin: miter; stroke-miterlimit: 4; fill: #000000; fill-rule: ; opacity: 1;">Y</tspan><tspan x="53.3" y="8.98" style="stroke: none; stroke-width: 0; stroke-dasharray: none; stroke-linecap: butt; stroke-linejoin: miter; stroke-miterlimit: 4; fill: #000000; fill-rule: ; opacity: 1;"> </tspan></text>
 </g>
<g style="stroke: none; stroke-width: 1; stroke-dasharray: none; stroke-linecap: butt; stroke-linejoin: miter; stroke-miterlimit: 10; fill: none; fill-rule: nonzero; opacity: 1;" transform="translate(48.07000000000004 50.690000000000005) scale(0.05 0.08)" >
  <path d="M 1044.59 23.733 S 930.597 -75.147 804.972 130.75 c 0 0 -267.545 423.402 -404.802 623.476 c 0 0 -60.48 81.43 -113.993 76.776 c 0 0 -111.672 0 -151.217 -158.2 c 0 0 -33.154 -126.789 139.585 -100.04 c 0 0 76.776 9.308 90.73 51.184 c 0 0 8.147 34.893 41.88 29.08 c 0 0 32.575 -13.956 12.795 -48.856 c 0 0 -27.649 -113.947 -398.71 -69.743 c 0 0 -22.312 1.111 -21.2 32.52 c 0 0 -8.155 303.602 260.554 322.791 c 0 0 108.181 10.281 181.465 -98.29 c 0 0 335.01 -549.042 397.826 -635.119 c 0 0 88.98 -132.023 151.21 -30.244 c 0 0 27.92 76.776 93.063 41.88 c -0.016 0.001 72.09 -55.816 -39.568 -144.232 z" style="stroke: none; stroke-width: 1; stroke-dasharray: none; stroke-linecap: butt; stroke-linejoin: miter; stroke-miterlimit: 10; fill: #ea8206; fill-rule: nonzero; opacity: 1;" transform=" matrix(0.9999998764043708 0 0 0.9999998764043708 0 0) " stroke-linecap="round" />
  <path d="M 237.847 471.316 s -41.7 -91.893 60.774 -130.044 c 0 0 122.921 -28.63 160.363 57.837 c 0 0 -26.56 -2.842 -35.03 23.163 c 0 0 -25.834 68.434 -88.334 67.976 c 0 0 -47.865 1.396 -78.586 -19.78 c 0 0 23.888 -76.355 113.234 -66.66 c 0 -0.002 -89.91 -22.485 -132.42 67.508 z" style="stroke: none; stroke-width: 1; stroke-dasharray: none; stroke-linecap: butt; stroke-linejoin: miter; stroke-miterlimit: 10; fill: #368c03; fill-rule: nonzero; opacity: 1;" transform=" matrix(0.9999998764043708 0 0 0.9999998764043708 0 0) " stroke-linecap="round" />
  <path d="M 200.135 478.915 s 25.21 -66.376 -48.436 -88.638 c 0 0 -87.583 -14.662 -110.05 47.712 c 0 0 18.525 -3.166 25.63 14.718 c 0 0 21.161 46.908 65.038 43.821 c 0 0 33.672 -1.138 54.3 -17.365 c 0 0 -20.147 -52.563 -82.46 -41.802 c 0 0.004 62.141 -19.764 95.978 41.554 z" style="stroke: none; stroke-width: 1; stroke-dasharray: none; stroke-linecap: butt; stroke-linejoin: miter; stroke-miterlimit: 10; fill: #53c610; fill-rule: nonzero; opacity: 1;" transform=" matrix(0.9999998764043708 0 0 0.9999998764043708 0 0) " stroke-linecap="round" />
</g>
  <g transform="translate(101.97 87.86) scale(0.6 0.6)">
   <text font-family="Gochi Hand" font-size="40" font-weight="normal" style="stroke: none; stroke-width: 1; stroke-dasharray: none; stroke-linecap: butt; stroke-linejoin: miter; stroke-miterlimit: 10; fill: #000000; fill-rule: nonzero; opacity: 1;" ><tspan x="-50.53" y="8.98" style="stroke: none; stroke-width: 0; stroke-dasharray: none; stroke-linecap: butt; stroke-linejoin: miter; stroke-miterlimit: 4; fill: #000000; fill-rule: ; opacity: 1;"> </tspan><tspan x="-41.05" y="8.98" style="stroke: none; stroke-width: 0; stroke-dasharray: none; stroke-linecap: butt; stroke-linejoin: miter; stroke-miterlimit: 4; fill: #000000; fill-rule: ; opacity: 1;">N</tspan><tspan x="-14.94" y="8.98" style="stroke: none; stroke-width: 0; stroke-dasharray: none; stroke-linecap: butt; stroke-linejoin: miter; stroke-miterlimit: 4; fill: #000000; fill-rule: ; opacity: 1;">O</tspan><tspan x="9.14" y="8.98" style="stroke: none; stroke-width: 0; stroke-dasharray: none; stroke-linecap: butt; stroke-linejoin: miter; stroke-miterlimit: 4; fill: #000000; fill-rule: ; opacity: 1;">S</tspan><tspan x="27.7" y="8.98" style="stroke: none; stroke-width: 0; stroke-dasharray: none; stroke-linecap: butt; stroke-linejoin: miter; stroke-miterlimit: 4; fill: #000000; fill-rule: ; opacity: 1;">H</tspan></text>
 </g>
</svg>